HIERARCHY
ROOT Hips
{
	OFFSET 0.00 0.00 0.00
	CHANNELS 6 Xposition Yposition Zposition Zrotation Xrotation Yrotation
	JOINT Neck
	{
		OFFSET 0.00 18.00 0.00
		CHANNELS 3 Zrotation Xrotation Yrotation
		JOINT Head
		{
			OFFSET 0.00 6.00 0.00
			CHANNELS 3 Zrotation Xrotation Yrotation
			End Site
			{
				OFFSET 0.00 4.00 0.00
			}
		}
		JOINT LeftArm
		{
			OFFSET 6.00 0.00 0.00
			CHANNELS 3 Zrotation Xrotation Yrotation
			JOINT LeftForeArm
			{
				OFFSET 8.00 0.00 0.00
				CHANNELS 3 Zrotation Xrotation Yrotation
				JOINT LeftHand
				{
					OFFSET 7.00 0.00 0.00
					CHANNELS 3 Zrotation Xrotation Yrotation
					End Site
					{
						OFFSET 3.00 0.00 0.00
					}
				}
			}
		}
		JOINT RightArm
		{
			OFFSET -6.00 0.00 0.00
			CHANNELS 3 Zrotation Xrotation Yrotation
			JOINT RightForeArm
			{
				OFFSET -8.00 0.00 0.00
				CHANNELS 3 Zrotation Xrotation Yrotation
				JOINT RightHand
				{
					OFFSET -7.00 0.00 0.00
					CHANNELS 3 Zrotation Xrotation Yrotation
					End Site
					{
						OFFSET -3.00 0.00 0.00
					}
				}
			}
		}
	}
	JOINT LeftUpLeg
	{
		OFFSET 4.00 0.00 0.00
		CHANNELS 3 Zrotation Xrotation Yrotation
		JOINT LeftLeg
		{
			OFFSET 0.00 -16.00 0.00
			CHANNELS 3 Zrotation Xrotation Yrotation
			JOINT LeftFoot
			{
				OFFSET 0.00 -16.00 0.00
				CHANNELS 3 Zrotation Xrotation Yrotation
				End Site
				{
					OFFSET 0.00 -4.00 0.00
				}
			}
		}
	}
	JOINT RightUpLeg
	{
		OFFSET -4.00 0.00 0.00
		CHANNELS 3 Zrotation Xrotation Yrotation
		JOINT RightLeg
		{
			OFFSET 0.00 -16.00 0.00
			CHANNELS 3 Zrotation Xrotation Yrotation
			JOINT RightFoot
			{
				OFFSET 0.00 -16.00 0.00
				CHANNELS 3 Zrotation Xrotation Yrotation
				End Site
				{
					OFFSET 0.00 -4.00 0.00
				}
			}
		}
	}
}
MOTION
Frames: 4
Frame Time: 0.0416667
0 40 0 0 0 0 0 0 0 0 0 0 0 0 0 0 0 0 0 0 0 0 0 0 0 0 0 0 0 0 0 0 0 0 0 0 0 0 0 0 0 0 0 0 0 0 0 0
0 40 0 0 0 0 0 0 0 0 0 0 0 -30 0 0 -15 0 0 0 0 0 30 0 0 15 0 0 0 0 0 35 0 0 -20 0 0 0 0 0 -35 0 0 0 0 0 0 0
0 40 0 0 0 0 0 0 0 0 0 0 0 0 0 0 0 0 0 0 0 0 0 0 0 0 0 0 0 0 0 0 0 0 0 0 0 0 0 0 0 0 0 0 0 0 0 0
0 40 0 0 0 0 0 0 0 0 0 0 0 30 0 0 15 0 0 0 0 0 -30 0 0 -15 0 0 0 0 0 -35 0 0 0 0 0 0 0 0 35 0 0 -20 0 0 0 0
